<svg width="17" height="17" viewBox="0 0 17 17" fill="none" xmlns="http://www.w3.org/2000/svg">
<path d="M8.49969 0.679688C12.8187 0.679688 16.3197 4.18067 16.3197 8.49969C16.3197 12.8187 12.8187 16.3197 8.49969 16.3197C4.18067 16.3197 0.679688 12.8187 0.679688 8.49969C0.679688 4.18067 4.18067 0.679688 8.49969 0.679688ZM11.1972 11.6872C11.3411 11.2459 12.0149 6.84763 12.0982 5.98097C12.1234 5.71849 12.0404 5.54407 11.8779 5.46621C11.6814 5.37169 11.3904 5.41895 11.0527 5.54067C10.5897 5.70761 4.66959 8.22123 4.32755 8.36675C4.00319 8.50445 3.69651 8.65473 3.69651 8.87233C3.69651 9.02533 3.78729 9.11135 4.03753 9.20077C4.29797 9.29359 4.95383 9.49249 5.34109 9.59925C5.71407 9.70227 6.13873 9.61285 6.37673 9.46495C6.62901 9.30821 9.54043 7.36001 9.74953 7.18933C9.95829 7.01865 10.1249 7.23727 9.95421 7.40829C9.78353 7.57897 7.78501 9.51867 7.52151 9.78727C7.20157 10.1133 7.42869 10.4513 7.64323 10.5866C7.88837 10.741 9.65127 11.9235 9.91681 12.1132C10.1823 12.3029 10.4516 12.3889 10.6981 12.3889C10.9446 12.3889 11.0745 12.0642 11.1972 11.6872Z" fill="#F9F9FF"/>
</svg>
