<svg width="16" height="14" viewBox="0 0 16 14" fill="none" xmlns="http://www.w3.org/2000/svg">
<path d="M1.29765 0.25H15.0928C15.296 0.25 15.491 0.329018 15.6347 0.46967C15.7784 0.610322 15.8592 0.801088 15.8592 1V13C15.8592 13.1989 15.7784 13.3897 15.6347 13.5303C15.491 13.671 15.296 13.75 15.0928 13.75H1.29765C1.09439 13.75 0.899449 13.671 0.755722 13.5303C0.611995 13.3897 0.53125 13.1989 0.53125 13V1C0.53125 0.801088 0.611995 0.610322 0.755722 0.46967C0.899449 0.329018 1.09439 0.25 1.29765 0.25V0.25ZM8.2412 6.76225L3.32706 2.6785L2.33458 3.8215L8.25116 8.73775L14.0612 3.81775L13.0588 2.683L8.24196 6.76225H8.2412Z" fill="#F9F9FF"/>
</svg>
