<svg width="16" height="16" viewBox="0 0 16 16" fill="none" xmlns="http://www.w3.org/2000/svg">
<path d="M13.8333 0.5H2.16667C1.24583 0.5 0.5 1.24583 0.5 2.16667V13.8333C0.5 14.7542 1.24583 15.5 2.16667 15.5H13.8333C14.7542 15.5 15.5 14.7542 15.5 13.8333V2.16667C15.5 1.24583 14.7542 0.5 13.8333 0.5ZM12.9225 11.07L11.4767 11.09C11.4767 11.09 11.165 11.1508 10.7567 10.8692C10.2158 10.4975 9.70583 9.53083 9.30833 9.65667C8.905 9.785 8.9175 10.655 8.9175 10.655C8.9175 10.655 8.92083 10.8083 8.82833 10.9083C8.72833 11.0158 8.5325 11.005 8.5325 11.005H7.885C7.885 11.005 6.45667 11.1233 5.1975 9.81083C3.82583 8.38 2.61417 5.55583 2.61417 5.55583C2.61417 5.55583 2.54333 5.3775 2.61917 5.28667C2.705 5.18583 2.93667 5.18333 2.93667 5.18333L4.48417 5.17583C4.48417 5.17583 4.63 5.20167 4.735 5.27833C4.82083 5.34167 4.87 5.46083 4.87 5.46083C4.87 5.46083 5.12 6.095 5.45167 6.66917C6.09833 7.78833 6.39917 8.03333 6.61833 7.91333C6.93833 7.73833 6.8425 6.33167 6.8425 6.33167C6.8425 6.33167 6.84833 5.82083 6.68167 5.59333C6.55167 5.41583 6.3075 5.36333 6.2 5.35C6.1125 5.33833 6.255 5.13583 6.44083 5.04417C6.71917 4.90833 7.21167 4.9 7.7925 4.90583C8.245 4.91083 8.37583 4.93833 8.5525 4.98167C9.08667 5.11083 8.905 5.60917 8.905 6.805C8.905 7.18833 8.83583 7.72667 9.11167 7.90417C9.23083 7.98083 9.52083 7.91583 10.245 6.6825C10.5892 6.0975 10.8467 5.41 10.8467 5.41C10.8467 5.41 10.9033 5.2875 10.9908 5.235C11.0808 5.18083 11.2017 5.1975 11.2017 5.1975L12.8308 5.1875C12.8308 5.1875 13.32 5.12833 13.4 5.35083C13.4833 5.58333 13.2175 6.12583 12.5517 7.01333C11.4592 8.47167 11.3375 8.33583 12.245 9.17917C13.1117 9.985 13.2908 10.3767 13.3208 10.4258C13.6792 11.0225 12.9225 11.07 12.9225 11.07Z" fill="#F9F9FF"/>
</svg>
