<svg width="18" height="11" viewBox="0 0 18 11" fill="none" xmlns="http://www.w3.org/2000/svg">
<path d="M10.7744 10.4719L18 5.34063L10.7744 0.209372C10.7092 0.148831 10.6263 0.0989018 10.5313 0.0629651C10.4364 0.0270285 10.3316 0.00592322 10.2241 0.00107793C10.1166 -0.00376737 10.0089 0.00776073 9.90828 0.0348814C9.80764 0.0620021 9.71643 0.104082 9.64081 0.158273C9.56519 0.212464 9.50694 0.277501 9.46999 0.34898C9.43304 0.42046 9.41826 0.496713 9.42666 0.572578C9.43505 0.648442 9.46642 0.722148 9.51864 0.788703C9.57086 0.855259 9.64271 0.913112 9.72932 0.958344L15.1353 4.80944L0.751879 4.80944C0.552469 4.80944 0.361225 4.86541 0.220221 4.96502C0.079216 5.06464 0 5.19975 0 5.34063C0 5.48151 0.079216 5.61662 0.220221 5.71624C0.361225 5.81585 0.552469 5.87182 0.751879 5.87182L15.1353 5.87182L9.72932 9.72292C9.58874 9.82294 9.51016 9.95832 9.51086 10.0993C9.51157 10.2402 9.5915 10.3752 9.73308 10.4745C9.87466 10.5739 10.0663 10.6294 10.2658 10.6289C10.4653 10.6284 10.6564 10.5719 10.797 10.4719H10.7744Z" fill="#F9F9FF"/>
</svg>
