<svg width="109" height="109" viewBox="0 0 109 109" fill="none" xmlns="http://www.w3.org/2000/svg">
<circle cx="54.4" cy="54.4" r="51.2" stroke="#F9F9FF" stroke-width="6.4"/>
<path d="M55.0111 83.1024C48.2527 83.1024 42.9493 81.2016 39.1007 77.4C35.2991 73.5984 33.3983 68.1072 33.3983 60.9264V33.1184H42.5503V60.5744C42.5503 65.6432 43.6298 69.3275 45.7887 71.6272C47.9946 73.927 51.0922 75.0768 55.0815 75.0768C59.0709 75.0768 62.145 73.927 64.3039 71.6272C66.4629 69.3275 67.5423 65.6432 67.5423 60.5744V33.1184H76.5535V60.9264C76.5535 68.1072 74.6293 73.5984 70.7807 77.4C66.9791 81.2016 61.7226 83.1024 55.0111 83.1024Z" fill="#F9F9FF"/>
</svg>
