<svg width="17" height="15" viewBox="0 0 17 15" fill="none" xmlns="http://www.w3.org/2000/svg">
<path d="M8.49896 0.533203C5.84782 0.533203 2.40684 1.19746 2.40684 1.19746L2.39818 1.20736C1.19071 1.40047 0.265625 2.43803 0.265625 3.69987V7.49987V7.50111V11.2999V11.3011C0.266803 11.9037 0.482776 12.4862 0.874764 12.944C1.26675 13.4017 1.80908 13.7047 2.40436 13.7986L2.40684 13.8023C2.40684 13.8023 5.84782 14.4678 8.49896 14.4678C11.1501 14.4678 14.5911 13.8023 14.5911 13.8023L14.5923 13.801C15.1882 13.7074 15.7312 13.4041 16.1235 12.9459C16.5158 12.4876 16.7317 11.9044 16.7323 11.3011V11.2999V7.50111V7.49987V3.69987C16.7314 3.09702 16.5156 2.51424 16.1236 2.05625C15.7315 1.59826 15.189 1.29507 14.5936 1.20117L14.5911 1.19746C14.5911 1.19746 11.1501 0.533203 8.49896 0.533203ZM6.59896 4.58555L11.6656 7.49987L6.59896 10.4142V4.58555Z" fill="#F9F9FF"/>
</svg>
